<mxfile host="app.diagrams.net" modified="2022-04-25T03:36:18.645Z" agent="5.0 (Windows NT 10.0; Win64; x64) AppleWebKit/537.36 (KHTML, like Gecko) Chrome/100.0.4896.88 Safari/537.36" etag="sjyLHj2p3cg76SGl-A59" version="17.4.6" type="github">
  <diagram id="4tw8qeyEsVRuTk7O7Lul" name="Page-1">
    <mxGraphModel dx="1422" dy="1907" grid="1" gridSize="10" guides="1" tooltips="1" connect="1" arrows="1" fold="1" page="1" pageScale="1" pageWidth="827" pageHeight="1169" math="0" shadow="0">
      <root>
        <mxCell id="0" />
        <mxCell id="1" parent="0" />
        <mxCell id="9HTEjru-9mZuChVTDgRW-22" style="edgeStyle=orthogonalEdgeStyle;rounded=1;orthogonalLoop=1;jettySize=auto;html=1;exitX=1;exitY=0.5;exitDx=0;exitDy=0;entryX=0;entryY=0.5;entryDx=0;entryDy=0;entryPerimeter=0;fontSize=16;strokeWidth=1;fontStyle=0;fontFamily=Times New Roman;fillColor=#ffe6cc;strokeColor=#d79b00;" parent="1" source="9HTEjru-9mZuChVTDgRW-7" target="9HTEjru-9mZuChVTDgRW-15" edge="1">
          <mxGeometry relative="1" as="geometry">
            <Array as="points">
              <mxPoint x="890" y="120" />
              <mxPoint x="890" y="220" />
            </Array>
          </mxGeometry>
        </mxCell>
        <mxCell id="9HTEjru-9mZuChVTDgRW-7" value="" style="rounded=1;whiteSpace=wrap;html=1;fontSize=16;strokeWidth=1;dashed=1;fontStyle=0;fontFamily=Times New Roman;fillColor=none;strokeColor=#d79b00;" parent="1" vertex="1">
          <mxGeometry x="630" y="20" width="180" height="200" as="geometry" />
        </mxCell>
        <mxCell id="S7mGbZ8-Z7_WYh5AuM9F-3" value="" style="edgeStyle=orthogonalEdgeStyle;rounded=0;orthogonalLoop=1;jettySize=auto;html=1;strokeWidth=1;fontSize=16;fontStyle=0;fontFamily=Times New Roman;fillColor=#d5e8d4;strokeColor=#82b366;" parent="1" source="9HTEjru-9mZuChVTDgRW-1" target="9HTEjru-9mZuChVTDgRW-2" edge="1">
          <mxGeometry relative="1" as="geometry" />
        </mxCell>
        <mxCell id="9HTEjru-9mZuChVTDgRW-1" value="&lt;span style=&quot;font-size: 16px;&quot;&gt;&lt;font style=&quot;font-size: 16px;&quot;&gt;知识百科HTML&lt;/font&gt;&lt;/span&gt;" style="shape=document;whiteSpace=wrap;html=1;boundedLbl=1;strokeWidth=1;fontStyle=0;fontSize=16;fillColor=#d5e8d4;strokeColor=#82b366;fontFamily=Times New Roman;" parent="1" vertex="1">
          <mxGeometry x="281" y="30" width="120" height="80" as="geometry" />
        </mxCell>
        <mxCell id="9HTEjru-9mZuChVTDgRW-10" style="edgeStyle=orthogonalEdgeStyle;rounded=1;orthogonalLoop=1;jettySize=auto;html=1;exitX=1;exitY=0.5;exitDx=0;exitDy=0;entryX=0;entryY=0.5;entryDx=0;entryDy=0;fontSize=16;strokeWidth=1;fontStyle=0;fontFamily=Times New Roman;fillColor=#d5e8d4;strokeColor=#82b366;" parent="1" source="9HTEjru-9mZuChVTDgRW-2" target="9HTEjru-9mZuChVTDgRW-7" edge="1">
          <mxGeometry relative="1" as="geometry">
            <Array as="points">
              <mxPoint x="540" y="230" />
              <mxPoint x="540" y="120" />
            </Array>
          </mxGeometry>
        </mxCell>
        <mxCell id="9HTEjru-9mZuChVTDgRW-12" style="edgeStyle=orthogonalEdgeStyle;rounded=1;orthogonalLoop=1;jettySize=auto;html=1;exitX=1;exitY=0.5;exitDx=0;exitDy=0;entryX=0;entryY=0.5;entryDx=0;entryDy=0;fontSize=16;strokeWidth=1;fontStyle=0;fontFamily=Times New Roman;fillColor=#d5e8d4;strokeColor=#82b366;" parent="1" target="9HTEjru-9mZuChVTDgRW-8" edge="1">
          <mxGeometry relative="1" as="geometry">
            <mxPoint x="411" y="230" as="sourcePoint" />
            <mxPoint x="487" y="320" as="targetPoint" />
            <Array as="points">
              <mxPoint x="540" y="230" />
              <mxPoint x="540" y="300" />
            </Array>
          </mxGeometry>
        </mxCell>
        <mxCell id="9HTEjru-9mZuChVTDgRW-2" value="&lt;span style=&quot;font-size: 16px;&quot;&gt;知识Element对象&lt;/span&gt;" style="rounded=0;whiteSpace=wrap;html=1;fontSize=16;strokeWidth=1;fontStyle=0;fillColor=#d5e8d4;strokeColor=#82b366;fontFamily=Times New Roman;" parent="1" vertex="1">
          <mxGeometry x="268" y="200" width="146" height="60" as="geometry" />
        </mxCell>
        <mxCell id="9HTEjru-9mZuChVTDgRW-4" value="&lt;span style=&quot;font-size: 16px;&quot;&gt;知识简介&lt;/span&gt;" style="rounded=0;whiteSpace=wrap;html=1;fontSize=16;strokeWidth=1;fontStyle=0;fillColor=#ffe6cc;strokeColor=#d79b00;fontFamily=Times New Roman;" parent="1" vertex="1">
          <mxGeometry x="670" y="60" width="100" height="40" as="geometry" />
        </mxCell>
        <mxCell id="9HTEjru-9mZuChVTDgRW-5" value="&lt;span style=&quot;font-size: 16px;&quot;&gt;知识属性&lt;/span&gt;" style="rounded=0;whiteSpace=wrap;html=1;fontSize=16;strokeWidth=1;fontStyle=0;fillColor=#ffe6cc;strokeColor=#d79b00;fontFamily=Times New Roman;" parent="1" vertex="1">
          <mxGeometry x="670" y="110" width="100" height="40" as="geometry" />
        </mxCell>
        <mxCell id="9HTEjru-9mZuChVTDgRW-6" value="&lt;span style=&quot;font-size: 16px;&quot;&gt;知识关系&lt;/span&gt;" style="rounded=0;whiteSpace=wrap;html=1;fontSize=16;strokeWidth=1;fontStyle=0;fillColor=#ffe6cc;strokeColor=#d79b00;fontFamily=Times New Roman;" parent="1" vertex="1">
          <mxGeometry x="670" y="160" width="100" height="40" as="geometry" />
        </mxCell>
        <mxCell id="9HTEjru-9mZuChVTDgRW-13" style="edgeStyle=orthogonalEdgeStyle;rounded=0;orthogonalLoop=1;jettySize=auto;html=1;exitX=1;exitY=0.5;exitDx=0;exitDy=0;entryX=0;entryY=0.5;entryDx=0;entryDy=0;fontSize=16;strokeWidth=1;fontStyle=0;fontFamily=Times New Roman;fillColor=#e1d5e7;strokeColor=#9673a6;" parent="1" source="9HTEjru-9mZuChVTDgRW-8" target="9HTEjru-9mZuChVTDgRW-9" edge="1">
          <mxGeometry relative="1" as="geometry" />
        </mxCell>
        <mxCell id="9HTEjru-9mZuChVTDgRW-8" value="&lt;span style=&quot;font-size: 16px;&quot;&gt;非结构化的&lt;br style=&quot;font-size: 16px;&quot;&gt;知识描述信息&lt;/span&gt;" style="rounded=1;whiteSpace=wrap;html=1;fontSize=16;strokeWidth=1;fontStyle=0;fillColor=#e1d5e7;strokeColor=#9673a6;fontFamily=Times New Roman;" parent="1" vertex="1">
          <mxGeometry x="570" y="270" width="120" height="60" as="geometry" />
        </mxCell>
        <mxCell id="9HTEjru-9mZuChVTDgRW-23" style="edgeStyle=orthogonalEdgeStyle;rounded=1;orthogonalLoop=1;jettySize=auto;html=1;exitX=0.5;exitY=0;exitDx=0;exitDy=0;entryX=0;entryY=0.5;entryDx=0;entryDy=0;entryPerimeter=0;fontSize=16;strokeWidth=1;fontStyle=0;fontFamily=Times New Roman;fillColor=#e1d5e7;strokeColor=#9673a6;" parent="1" source="9HTEjru-9mZuChVTDgRW-9" target="9HTEjru-9mZuChVTDgRW-15" edge="1">
          <mxGeometry relative="1" as="geometry" />
        </mxCell>
        <mxCell id="9HTEjru-9mZuChVTDgRW-9" value="&lt;span style=&quot;font-size: 16px;&quot;&gt;&lt;span style=&quot;font-size: 16px;&quot;&gt;时空知识网络&lt;/span&gt;&lt;/span&gt;" style="rounded=1;whiteSpace=wrap;html=1;fontSize=16;strokeWidth=1;fontStyle=0;fillColor=#e1d5e7;strokeColor=#9673a6;fontFamily=Times New Roman;" parent="1" vertex="1">
          <mxGeometry x="830" y="270" width="120" height="60" as="geometry" />
        </mxCell>
        <mxCell id="9HTEjru-9mZuChVTDgRW-14" value="&lt;span style=&quot;font-size: 16px;&quot;&gt;结构化三元组信息&lt;/span&gt;" style="text;html=1;strokeColor=none;fillColor=none;align=center;verticalAlign=middle;whiteSpace=wrap;rounded=0;fontSize=16;fontStyle=0;strokeWidth=1;fontFamily=Times New Roman;" parent="1" vertex="1">
          <mxGeometry x="645" y="30" width="150" height="30" as="geometry" />
        </mxCell>
        <mxCell id="9HTEjru-9mZuChVTDgRW-18" style="edgeStyle=orthogonalEdgeStyle;rounded=1;orthogonalLoop=1;jettySize=auto;html=1;exitX=0.5;exitY=0;exitDx=0;exitDy=0;exitPerimeter=0;entryX=0.5;entryY=0;entryDx=0;entryDy=0;fontSize=16;strokeWidth=1;fontStyle=0;fontFamily=Times New Roman;fillColor=#f8cecc;strokeColor=#b85450;" parent="1" source="9HTEjru-9mZuChVTDgRW-15" target="9HTEjru-9mZuChVTDgRW-1" edge="1">
          <mxGeometry relative="1" as="geometry">
            <Array as="points">
              <mxPoint x="1065" y="-40" />
              <mxPoint x="341" y="-40" />
            </Array>
          </mxGeometry>
        </mxCell>
        <mxCell id="9HTEjru-9mZuChVTDgRW-15" value="&lt;span style=&quot;font-size: 16px;&quot;&gt;&lt;font style=&quot;font-size: 16px&quot;&gt;时空知识库&lt;/font&gt;&lt;/span&gt;" style="shape=cylinder3;whiteSpace=wrap;html=1;boundedLbl=1;backgroundOutline=1;size=15;fontSize=16;strokeWidth=1;fontStyle=0;fillColor=#f8cecc;strokeColor=#b85450;fontFamily=Times New Roman;" parent="1" vertex="1">
          <mxGeometry x="990" y="180" width="150" height="80" as="geometry" />
        </mxCell>
        <mxCell id="9HTEjru-9mZuChVTDgRW-19" value="&lt;span style=&quot;font-size: 16px;&quot;&gt;lxml库&lt;/span&gt;" style="text;html=1;align=center;verticalAlign=middle;resizable=0;points=[];autosize=1;strokeColor=none;fillColor=none;fontSize=16;fontStyle=0;strokeWidth=1;fontFamily=Times New Roman;" parent="1" vertex="1">
          <mxGeometry x="340" y="130" width="60" height="20" as="geometry" />
        </mxCell>
        <mxCell id="9HTEjru-9mZuChVTDgRW-20" value="&lt;span style=&quot;font-size: 16px;&quot;&gt;转化&lt;/span&gt;" style="text;html=1;align=center;verticalAlign=middle;resizable=0;points=[];autosize=1;strokeColor=none;fillColor=none;fontSize=16;fontStyle=0;strokeWidth=1;fontFamily=Times New Roman;" parent="1" vertex="1">
          <mxGeometry x="340" y="150" width="50" height="20" as="geometry" />
        </mxCell>
        <mxCell id="9HTEjru-9mZuChVTDgRW-21" value="基于XPath的&lt;br style=&quot;font-size: 16px;&quot;&gt;对象切分" style="text;html=1;strokeColor=none;fillColor=none;align=center;verticalAlign=middle;whiteSpace=wrap;rounded=0;fontSize=16;fontStyle=0;strokeWidth=1;fontFamily=Times New Roman;" parent="1" vertex="1">
          <mxGeometry x="400" y="215" width="149" height="30" as="geometry" />
        </mxCell>
        <mxCell id="9HTEjru-9mZuChVTDgRW-25" value="&lt;span style=&quot;font-size: 16px;&quot;&gt;命名实体识别&lt;/span&gt;" style="text;html=1;align=center;verticalAlign=middle;resizable=0;points=[];autosize=1;strokeColor=none;fillColor=none;fontSize=16;fontStyle=0;strokeWidth=1;fontFamily=Times New Roman;" parent="1" vertex="1">
          <mxGeometry x="700" y="280" width="110" height="20" as="geometry" />
        </mxCell>
        <mxCell id="9HTEjru-9mZuChVTDgRW-26" value="&lt;span style=&quot;font-size: 16px;&quot;&gt;子事件摘要抽取&lt;/span&gt;" style="text;html=1;align=center;verticalAlign=middle;resizable=0;points=[];autosize=1;strokeColor=none;fillColor=none;fontSize=16;fontStyle=0;strokeWidth=1;fontFamily=Times New Roman;" parent="1" vertex="1">
          <mxGeometry x="694" y="306" width="130" height="20" as="geometry" />
        </mxCell>
        <mxCell id="9HTEjru-9mZuChVTDgRW-27" value="&lt;span style=&quot;font-size: 16px;&quot;&gt;知识融合&lt;/span&gt;" style="text;html=1;align=center;verticalAlign=middle;resizable=0;points=[];autosize=1;strokeColor=none;fillColor=none;fontSize=16;fontStyle=0;strokeWidth=1;fontFamily=Times New Roman;" parent="1" vertex="1">
          <mxGeometry x="900" y="195" width="80" height="20" as="geometry" />
        </mxCell>
        <mxCell id="9HTEjru-9mZuChVTDgRW-28" value="&lt;span style=&quot;font-size: 16px;&quot;&gt;以收集到的新知识点作为起点迭代采集新的知识百科HTML页面&lt;/span&gt;" style="text;html=1;align=center;verticalAlign=middle;resizable=0;points=[];autosize=1;strokeColor=none;fillColor=none;fontSize=16;fontStyle=0;strokeWidth=1;fontFamily=Times New Roman;" parent="1" vertex="1">
          <mxGeometry x="470" y="-30" width="460" height="20" as="geometry" />
        </mxCell>
        <mxCell id="4UL7_3U-5SAq4ibPVlkB-1" style="edgeStyle=none;rounded=1;comic=0;sketch=0;jumpStyle=none;orthogonalLoop=1;jettySize=auto;html=1;exitX=0.5;exitY=0;exitDx=0;exitDy=0;shadow=0;fontFamily=Times New Roman;fontSize=16;strokeWidth=1;" edge="1" parent="1" source="9HTEjru-9mZuChVTDgRW-21" target="9HTEjru-9mZuChVTDgRW-21">
          <mxGeometry relative="1" as="geometry" />
        </mxCell>
      </root>
    </mxGraphModel>
  </diagram>
</mxfile>
